<?xml version="1.0" encoding="UTF-8" standalone="no"?>
<!DOCTYPE svg PUBLIC "-//W3C//DTD SVG 1.1//EN" "http://www.w3.org/Graphics/SVG/1.1/DTD/svg11.dtd">
<svg width="100%" height="100%" viewBox="0 0 2010 777" version="1.1" xmlns="http://www.w3.org/2000/svg" xmlns:xlink="http://www.w3.org/1999/xlink" xml:space="preserve" xmlns:serif="http://www.serif.com/" style="fill-rule:evenodd;clip-rule:evenodd;stroke-linejoin:round;stroke-miterlimit:2;">
    <g transform="matrix(1,0,0,1,-3948.370809,-100.681055)">
        <g transform="matrix(1,0,0,1,-0.307319,-0.379894)">
            <g transform="matrix(0.783725,0,0,0.783725,7022.181737,575.316089)">
                <path d="M-2862.96,276.56C-2863.026,275.015 -2863.058,273.469 -2863.058,271.923L-2863.058,25.503C-2863.058,-33.828 -2814.888,-81.998 -2755.557,-81.998C-2700.419,-81.998 -2654.921,-40.398 -2648.764,13.1L-2585.372,-50.291C-2543.418,-92.245 -2475.296,-92.245 -2433.342,-50.291C-2391.388,-8.338 -2391.388,59.785 -2433.342,101.739L-2679.563,347.959C-2692.225,360.622 -2707.272,369.463 -2723.264,374.482C-2733.459,377.693 -2744.307,379.425 -2755.557,379.425C-2757.102,379.425 -2758.648,379.392 -2760.192,379.326C-2765.188,379.114 -2770.095,378.56 -2774.892,377.687C-2795.668,373.916 -2815.545,364.007 -2831.593,347.959C-2847.641,331.911 -2857.55,312.034 -2861.321,291.258C-2862.193,286.461 -2862.747,281.554 -2862.96,276.56ZM-3460.563,-374.58L-3460.563,-210.473C-3460.563,-173.624 -3490.48,-143.707 -3527.329,-143.707L-3691.112,-143.707C-3818.355,-143.707 -3921.661,-247.012 -3921.661,-374.256L-3921.661,-374.58C-3921.661,-501.824 -3818.355,-605.13 -3691.112,-605.13C-3563.868,-605.13 -3460.563,-501.824 -3460.563,-374.58ZM-1357.151,-109.909L-1357.151,-109.212C-1357.151,164.108 -1579.052,386.009 -1852.371,386.009C-2125.691,386.009 -2347.592,164.108 -2347.592,-109.212L-2347.592,-109.909C-2347.592,-383.229 -2125.691,-605.13 -1852.371,-605.13C-1579.052,-605.13 -1357.151,-383.229 -1357.151,-109.909ZM-2996.045,-143.707L-3325.723,-143.707C-3362.573,-143.707 -3392.49,-173.624 -3392.49,-210.473L-3392.49,-374.58C-3392.49,-501.824 -3289.184,-605.13 -3161.94,-605.13C-3034.697,-605.13 -2931.391,-501.824 -2931.391,-374.58L-2931.391,-208.36C-2931.391,-172.677 -2960.362,-143.707 -2996.045,-143.707ZM-2491.942,205.18C-2444.423,205.18 -2405.843,243.76 -2405.843,291.279L-2405.843,293.326C-2405.843,340.845 -2444.423,379.425 -2491.942,379.425C-2539.461,379.425 -2578.04,340.845 -2578.04,293.326L-2578.04,291.279C-2578.04,243.76 -2539.461,205.18 -2491.942,205.18ZM-2405.719,-571.487L-2405.719,-419.124C-2405.719,-402.094 -2419.546,-388.267 -2436.576,-388.267L-2756.508,-388.267C-2815.315,-388.267 -2863.058,-436.011 -2863.058,-494.817C-2863.058,-553.624 -2815.315,-601.367 -2756.508,-601.367L-2435.6,-601.367C-2419.108,-601.367 -2405.719,-587.978 -2405.719,-571.487ZM-3460.563,146.225L-3460.563,308.994C-3460.563,345.543 -3490.236,375.216 -3526.785,375.216L-3689.232,375.216C-3815.438,375.216 -3917.901,272.753 -3917.901,146.547L-3917.901,146.225C-3917.901,20.019 -3815.438,-82.444 -3689.232,-82.444C-3563.026,-82.444 -3460.563,20.019 -3460.563,146.225ZM-2863.058,-173.587L-2863.058,-325.95C-2863.058,-342.98 -2849.232,-356.807 -2832.202,-356.807L-2512.269,-356.807C-2453.463,-356.807 -2405.719,-309.063 -2405.719,-250.257C-2405.719,-191.45 -2453.463,-143.707 -2512.269,-143.707L-2833.178,-143.707C-2849.669,-143.707 -2863.058,-157.096 -2863.058,-173.587ZM-3209.319,374.77L-3361.641,374.77C-3378.667,374.77 -3392.49,360.948 -3392.49,343.922L-3392.49,-52.618C-3392.49,-69.08 -3379.125,-82.444 -3362.664,-82.444L-3285.968,-82.444C-3227.178,-82.444 -3179.447,-34.714 -3179.447,24.077L-3179.447,344.898C-3179.447,361.385 -3192.832,374.77 -3209.319,374.77ZM-2965.147,375.216L-3117.469,375.216C-3134.495,375.216 -3148.317,361.394 -3148.317,344.368L-3148.317,24.523C-3148.317,-34.268 -3100.587,-81.998 -3041.796,-81.998C-2983.005,-81.998 -2935.275,-34.268 -2935.275,24.523L-2935.275,345.344C-2935.275,361.831 -2948.66,375.216 -2965.147,375.216Z" style="fill:white;"/>
            </g>
        </g>
    </g>
</svg>
